<?xml version="1.0" encoding="utf-8"?>
<!-- Generator: Adobe Illustrator 24.2.1, SVG Export Plug-In . SVG Version: 6.00 Build 0)  -->
<svg version="1.1" id="Layer_1" xmlns="http://www.w3.org/2000/svg" xmlns:xlink="http://www.w3.org/1999/xlink" x="0px" y="0px"
	 viewBox="0 0 235.3 56.1" style="enable-background:new 0 0 235.3 56.1;" xml:space="preserve">
<style type="text/css">
	.st0{fill:#41B8EA;}
</style>
<g>
	<path class="st0" d="M41.5,4.3c0.6,0.6,0.9,1.3,0.9,2.2v43.2c0,1-0.3,1.8-1,2.5c-0.6,0.7-1.5,1-2.5,1c-0.5,0-1-0.1-1.5-0.2
		c-0.5-0.2-0.9-0.4-1.2-0.7l-28-36.4v34.3c0,0.9-0.3,1.6-0.9,2.2c-0.6,0.6-1.3,0.9-2.2,0.9c-0.9,0-1.6-0.3-2.2-0.9
		c-0.6-0.6-0.9-1.3-0.9-2.2V6.8c0-1,0.3-1.8,1-2.5c0.6-0.6,1.4-1,2.4-1C6,3.4,6.5,3.5,7,3.7C7.6,3.9,8,4.2,8.3,4.6l27.9,36.5V6.5
		c0-0.9,0.3-1.6,0.9-2.2c0.6-0.6,1.3-0.9,2.2-0.9C40.2,3.4,40.9,3.7,41.5,4.3z"/>
	<path class="st0" d="M85,35.3c-0.7,0.6-1.4,0.9-2.3,0.9H57.6c0.3,3.5,1.6,6.2,4,8.3c2.3,2.1,5.1,3.1,8.4,3.1c2.3,0,4.1-0.3,5.6-1
		c1.4-0.7,2.7-1.5,3.8-2.6c0.7-0.4,1.4-0.6,2.1-0.6c0.8,0,1.5,0.3,2,0.9c0.5,0.6,0.8,1.2,0.8,2c0,1-0.5,1.9-1.4,2.7
		c-1.4,1.4-3.2,2.5-5.5,3.5c-2.3,0.9-4.6,1.4-7,1.4c-3.8,0-7.2-0.8-10.1-2.4c-2.9-1.6-5.2-3.9-6.8-6.8c-1.6-2.9-2.4-6.2-2.4-9.8
		c0-4,0.8-7.5,2.5-10.5c1.6-3,3.8-5.3,6.5-6.9c2.7-1.6,5.6-2.4,8.6-2.4c3,0,5.9,0.8,8.5,2.3c2.7,1.6,4.8,3.7,6.4,6.5
		c1.6,2.8,2.4,5.8,2.5,9.3C86,34,85.6,34.7,85,35.3z M61.7,23.5c-1.9,1.5-3.2,3.8-3.8,6.9h21v-0.6c-0.2-2.5-1.4-4.6-3.4-6.2
		c-2-1.6-4.3-2.4-6.9-2.4C65.9,21.3,63.6,22,61.7,23.5z"/>
	<path class="st0" d="M121.6,49.9c0,0.9-0.4,1.8-1.1,2.5c-0.7,0.7-1.5,1-2.3,1c-1.1,0-2-0.5-2.8-1.5l-9.5-12l-9.4,12
		c-0.3,0.5-0.7,0.8-1.2,1.1c-0.5,0.2-1,0.4-1.5,0.4c-0.8,0-1.6-0.3-2.2-0.9c-0.7-0.6-1-1.3-1-2.1c0-0.9,0.3-1.6,0.8-2.1l10.7-13.3
		L91,21.1c-0.5-0.6-0.7-1.3-0.7-2c0-0.9,0.3-1.8,1-2.4c0.7-0.7,1.5-1,2.4-1c1.1,0,2.1,0.5,2.8,1.4l9.8,12.3l9.2-12.2
		c0.7-1,1.6-1.5,2.7-1.5c0.9,0,1.7,0.3,2.3,0.9c0.6,0.6,0.9,1.3,0.9,2.1c0,0.9-0.3,1.6-0.8,2.2L110,34.2l10.8,13.7
		C121.3,48.5,121.6,49.2,121.6,49.9z"/>
	<path class="st0" d="M160.7,44.5c-1.7,2.9-3.9,5.2-6.8,6.9c-2.9,1.7-6,2.5-9.5,2.5c-3.5,0-6.6-0.8-9.5-2.5c-2.9-1.7-5.1-4-6.8-6.9
		c-1.7-2.9-2.5-6.3-2.5-10c0-3.7,0.8-7,2.5-10c1.7-3,3.9-5.3,6.8-7c2.9-1.7,6-2.5,9.5-2.5c3.5,0,6.6,0.8,9.5,2.5
		c2.9,1.7,5.1,4,6.8,7c1.7,3,2.5,6.3,2.5,10C163.2,38.2,162.4,41.6,160.7,44.5z M154.8,27.7c-1.1-2-2.5-3.6-4.3-4.7
		c-1.8-1.1-3.9-1.7-6.1-1.7c-2.2,0-4.3,0.6-6.1,1.7c-1.8,1.1-3.3,2.7-4.3,4.7c-1.1,2-1.6,4.3-1.6,6.9c0,2.5,0.5,4.8,1.6,6.8
		c1.1,2,2.5,3.5,4.3,4.7c1.8,1.1,3.9,1.7,6.1,1.7c2.2,0,4.3-0.6,6.1-1.7c1.8-1.1,3.3-2.7,4.3-4.7c1.1-2,1.6-4.2,1.6-6.8
		C156.4,32,155.9,29.7,154.8,27.7z"/>
	<path class="st0" d="M192.8,16c0.9,0.6,1.4,1.4,1.4,2.4c0,1.1-0.3,2-0.9,2.6s-1.3,0.9-2.2,0.9c-0.4,0-1.1-0.1-1.9-0.4
		c-1-0.3-1.8-0.5-2.3-0.5c-1.5,0-2.9,0.5-4.3,1.5c-1.4,1-2.5,2.4-3.4,4.2c-0.9,1.8-1.3,3.8-1.3,5.9v17.2c0,0.9-0.3,1.8-1,2.4
		c-0.6,0.7-1.5,1-2.5,1c-1,0-1.8-0.3-2.4-1c-0.6-0.6-0.9-1.5-0.9-2.5V19.3c0-0.9,0.3-1.8,1-2.4c0.6-0.7,1.4-1,2.4-1
		c1,0,1.8,0.3,2.5,1c0.6,0.7,1,1.5,1,2.4v3.6c1-2.3,2.6-4.2,4.7-5.7c2.1-1.4,4.5-2.2,7.1-2.2C190.8,15,191.9,15.4,192.8,16z"/>
	<path class="st0" d="M232.3,16.4c0.6,0.6,1,1.5,1,2.5v30.9c0,0.9-0.3,1.8-1,2.4c-0.6,0.7-1.5,1-2.5,1s-1.8-0.3-2.4-1
		c-0.6-0.6-0.9-1.5-0.9-2.5v-1.9c-1.2,1.7-2.9,3.1-5.1,4.2c-2.1,1.2-4.4,1.7-6.9,1.7c-3.2,0-6.2-0.8-8.8-2.5c-2.6-1.7-4.7-4-6.2-6.9
		c-1.5-3-2.2-6.3-2.2-10c0-3.7,0.7-7,2.2-10c1.5-3,3.5-5.3,6.2-6.9c2.6-1.7,5.5-2.5,8.6-2.5c2.5,0,4.9,0.5,7,1.6
		c2.2,1,3.9,2.4,5.2,4v-1.7c0-1,0.3-1.8,0.9-2.5c0.6-0.7,1.4-1,2.4-1S231.6,15.7,232.3,16.4z M221.2,45.9c1.7-1.1,3.1-2.7,4.1-4.7
		c1-2,1.5-4.2,1.5-6.8c0-2.5-0.5-4.7-1.5-6.7c-1-2-2.3-3.6-4.1-4.7c-1.7-1.2-3.7-1.7-5.9-1.7c-2.2,0-4.2,0.6-5.9,1.7
		c-1.7,1.1-3.1,2.7-4.1,4.7c-1,2-1.5,4.2-1.5,6.8c0,2.5,0.5,4.8,1.5,6.8c1,2,2.3,3.6,4.1,4.7c1.7,1.1,3.7,1.7,5.9,1.7
		C217.5,47.6,219.5,47.1,221.2,45.9z"/>
</g>
</svg>
